<svg width="30" height="30" viewBox="0 0 30 30" fill="none" xmlns="http://www.w3.org/2000/svg">
<path fill-rule="evenodd" clip-rule="evenodd" d="M15 30C23.2843 30 30 23.2843 30 15C30 6.71573 23.2843 0 15 0C6.71573 0 0 6.71573 0 15C0 23.2843 6.71573 30 15 30ZM8.69473 13.9338L7.61722 15L8.69473 16.0662L15.5162 22.8162L16.5712 23.8602L17.6263 22.8162L19.0549 21.4026L20.1324 20.3364L19.0549 19.2701L14.7395 15L19.0549 10.7298L20.1324 9.66362L19.0549 8.59739L17.6263 7.18377L16.5712 6.13976L15.5162 7.18377L8.69473 13.9338Z" fill="#9CA3AF"/>
</svg>
