<svg width="20" height="16" viewBox="0 0 20 16" fill="none" xmlns="http://www.w3.org/2000/svg">
<path fill-rule="evenodd" clip-rule="evenodd" d="M1 0H0.978C0.743 0.005 0.527 0.0919998 0.358 0.233L0.343 0.246L0.328 0.259L0.31 0.276L0.288 0.298L0.275 0.311L0.267 0.32L0.245 0.344L0.224 0.369L0.206 0.392L0.2 0.4L0.188 0.416C0.087 0.556 0.0220001 0.723 0.00500011 0.904L0.00300002 0.925L0.00200009 0.938L0 1.007V15C0 15.552 0.448 16 1 16H19C19.552 16 20 15.552 20 15V1C20 0.448 19.552 0 19 0H1ZM18 3.032L10.615 8.789C10.254 9.07 9.747 9.07 9.386 8.789L2 3.045V14H18V3.032ZM5.908 2H16.071L9.999 6.733L3.915 2H5.908Z" fill="#FD4328"/>
</svg>
