<svg width="18" height="22" viewBox="0 0 18 22" fill="none" xmlns="http://www.w3.org/2000/svg">
<path d="M9 0C4.04129 0 -0.00982508 3.9662 1.78987e-05 8.83566C0.0137662 15.6372 6.03197 19.0868 8.29297 21.306L9 22L9.70703 21.306C11.968 19.0868 17.9862 15.6372 18 8.83566C18.0098 3.9662 13.9587 0 9 0ZM9 1.96305C12.8778 1.96305 16.0077 5.02798 16 8.83182C15.9894 14.0884 11.7811 16.7856 9 19.2759C6.21894 16.7856 2.01064 14.0884 2.00001 8.83182C1.99232 5.02798 5.12217 1.96305 9 1.96305ZM9 4.90763C6.80271 4.90763 5.00001 6.67704 5.00001 8.83374C5.00001 10.9904 6.80271 12.7598 9 12.7598C11.1973 12.7598 13 10.9904 13 8.83374C13 6.67704 11.1973 4.90763 9 4.90763ZM9 6.87069C10.1164 6.87069 11 7.73795 11 8.83374C11 9.92953 10.1164 10.7968 9 10.7968C7.88359 10.7968 7 9.92953 7 8.83374C7 7.73795 7.88359 6.87069 9 6.87069Z" fill="#FD4328"/>
</svg>
