<svg width="20" height="20" viewBox="0 0 20 20" fill="none" xmlns="http://www.w3.org/2000/svg">
<path d="M14.6709 10.1425C14.3211 9.79265 13.754 9.79265 13.4042 10.1425L12.1208 11.426C10.7137 10.5367 9.46335 9.28637 8.57407 7.87929L9.85758 6.59582C10.2073 6.24606 10.2072 5.67868 9.85758 5.3291L4.79087 0.262301C4.62293 0.0943601 4.39507 0 4.15754 0C3.92 0 3.69214 0.0943604 3.5242 0.262346L0.656887 3.1297C0.129194 3.65739 -0.100952 4.4078 0.0412829 5.13702C1.3978 12.0917 7.9083 18.6022 14.863 19.9588C15.5898 20.1006 16.341 19.8725 16.8703 19.3432L19.7377 16.4759C19.9056 16.3079 20 16.0801 20 15.8425C20 15.6049 19.9056 15.3771 19.7377 15.2091L14.6709 10.1425ZM15.6036 18.0765C15.498 18.1822 15.3493 18.2285 15.2059 18.2006C8.95661 16.9817 3.01782 11.0404 1.79942 4.79411C1.77148 4.65075 1.81787 4.50207 1.92347 4.39651L1.92352 4.39642L4.15754 2.16236L7.95752 5.96235L6.81749 7.10233C6.53643 7.3834 6.47422 7.81606 6.66465 8.16488C7.84207 10.3217 9.67827 12.1578 11.835 13.3353C12.1839 13.5258 12.6166 13.4634 12.8975 13.1825L14.0376 12.0424L17.8376 15.8425L15.6036 18.0765Z" fill="#FD4328"/>
</svg>
