<svg width="22" height="22" viewBox="0 0 22 22" fill="none" xmlns="http://www.w3.org/2000/svg">
<path d="M9.9 19.8C7.94197 19.8 6.0279 19.2194 4.39986 18.1315C2.77181 17.0437 1.5029 15.4976 0.753597 13.6886C0.00428948 11.8796 -0.191763 9.88902 0.19023 7.96861C0.572224 6.0482 1.51511 4.28419 2.89965 2.89965C4.28419 1.51511 6.0482 0.572224 7.96861 0.19023C9.88902 -0.191763 11.8796 0.00428948 13.6886 0.753597C15.4976 1.5029 17.0437 2.77181 18.1315 4.39986C19.2194 6.0279 19.8 7.94197 19.8 9.9C19.7971 12.5247 18.7531 15.0411 16.8971 16.8971C15.0411 18.7531 12.5247 19.7971 9.9 19.8ZM9.9 2.475C8.43148 2.475 6.99593 2.91047 5.77489 3.72634C4.55386 4.54221 3.60218 5.70184 3.0402 7.05858C2.47822 8.41532 2.33118 9.90824 2.61767 11.3485C2.90417 12.7889 3.61133 14.1119 4.64974 15.1503C5.68814 16.1887 7.01115 16.8958 8.45146 17.1823C9.89177 17.4688 11.3847 17.3218 12.7414 16.7598C14.0982 16.1978 15.2578 15.2461 16.0737 14.0251C16.8895 12.8041 17.325 11.3685 17.325 9.9C17.323 7.93137 16.5401 6.04394 15.1481 4.65191C13.7561 3.25988 11.8686 2.47697 9.9 2.475Z" fill="#111827"/>
<path d="M20.7142 22C20.3732 22 20.0462 21.8644 19.805 21.6233L14.661 16.4794C14.4267 16.2369 14.2971 15.912 14.3 15.5748C14.303 15.2377 14.4382 14.9151 14.6767 14.6767C14.9151 14.4383 15.2376 14.303 15.5748 14.3001C15.912 14.2972 16.2369 14.4268 16.4794 14.661L21.6235 19.8049C21.8033 19.9847 21.9257 20.2139 21.9753 20.4633C22.0249 20.7127 21.9994 20.9712 21.9021 21.2062C21.8048 21.4411 21.64 21.6419 21.4286 21.7832C21.2171 21.9245 20.9686 22 20.7142 22Z" fill="#111827"/>
</svg>
